<svg xmlns="http://www.w3.org/2000/svg" width="46" height="46" viewBox="0 0 46 46">
  <defs>
    <style>
      .cls-1 {
        fill: #023059;
      }

      .cls-2 {
        fill: #528dd9;
      }

      .cls-3 {
        fill: #fff;
      }

      .cls-4 {
        fill: #406a80;
      }
    </style>
  </defs>
  <g id="chat-svgrepo-com_2_" data-name="chat-svgrepo-com (2)" transform="translate(0.374)">
    <path id="패스_26" data-name="패스 26" class="cls-1" d="M23,0A23,23,0,1,1,0,23,23,23,0,0,1,23,0Z" transform="translate(-0.374 0)"/>
    <path id="패스_19" data-name="패스 19" class="cls-2" d="M191.137,178.6v10.364a3.768,3.768,0,0,1-3.762,3.762h0V197.6l-5.95-4.875H170.562a3.768,3.768,0,0,1-3.762-3.762v-2.15l2.073-1.727h10.9a3.768,3.768,0,0,0,3.762-3.762V174.8h3.839A3.826,3.826,0,0,1,191.137,178.6Z" transform="translate(-152.795 -159.751)"/>
    <path id="패스_20" data-name="패스 20" class="cls-3" d="M108.175,95.6H91.362A3.768,3.768,0,0,0,87.6,99.362v10.364a3.768,3.768,0,0,0,3.762,3.762h0v4.875l5.95-4.875h10.863a3.768,3.768,0,0,0,3.762-3.762V99.362A3.768,3.768,0,0,0,108.175,95.6Z" transform="translate(-80.271 -87.279)"/>
    <g id="그룹_25" data-name="그룹 25" transform="translate(10.789 15.729)">
      <circle id="타원_27" data-name="타원 27" class="cls-4" cx="1.828" cy="1.828" r="1.828"/>
      <circle id="타원_28" data-name="타원 28" class="cls-4" cx="1.828" cy="1.828" r="1.828" transform="translate(6.986)"/>
      <circle id="타원_29" data-name="타원 29" class="cls-4" cx="1.828" cy="1.828" r="1.828" transform="translate(13.934)"/>
    </g>
  </g>
</svg>
