<svg xmlns="http://www.w3.org/2000/svg" xmlns:xlink="http://www.w3.org/1999/xlink" width="49" height="49" viewBox="0 0 49 49">
  <defs>
    <style>
      .cls-1 {
        fill: #fff;
      }

      .cls-2 {
        fill: #59f;
      }

      .cls-3 {
        filter: url(#타원_14);
      }
    </style>
    <filter id="타원_14" x="0" y="0" width="49" height="49" filterUnits="userSpaceOnUse">
      <feOffset dy="3" input="SourceAlpha"/>
      <feGaussianBlur stdDeviation="3" result="blur"/>
      <feFlood flood-opacity="0.161"/>
      <feComposite operator="in" in2="blur"/>
      <feComposite in="SourceGraphic"/>
    </filter>
  </defs>
  <g id="그룹_64" data-name="그룹 64" transform="translate(-224 -253)">
    <g class="cls-3" transform="matrix(1, 0, 0, 1, 224, 253)">
      <circle id="타원_14-2" data-name="타원 14" class="cls-1" cx="15.5" cy="15.5" r="15.5" transform="translate(9 6)"/>
    </g>
    <g id="file-svgrepo-com" transform="translate(236 267)">
      <path id="패스_10" data-name="패스 10" class="cls-2" d="M25.623,25H19.255a.255.255,0,1,0,0,.509h6.368a.255.255,0,1,0,0-.509Z" transform="translate(-9.689 -18.632)"/>
      <path id="패스_11" data-name="패스 11" class="cls-2" d="M19.255,17.509H21.8a.255.255,0,1,0,0-.509H19.255a.255.255,0,1,0,0,.509Z" transform="translate(-9.689 -12.67)"/>
      <path id="패스_12" data-name="패스 12" class="cls-2" d="M25.623,33H19.255a.255.255,0,1,0,0,.509h6.368a.255.255,0,1,0,0-.509Z" transform="translate(-9.689 -24.594)"/>
      <path id="패스_13" data-name="패스 13" class="cls-2" d="M25.623,41H19.255a.255.255,0,0,0,0,.509h6.368a.255.255,0,0,0,0-.509Z" transform="translate(-9.689 -30.557)"/>
      <path id="패스_14" data-name="패스 14" class="cls-2" d="M25.623,49H19.255a.255.255,0,1,0,0,.509h6.368a.255.255,0,1,0,0-.509Z" transform="translate(-9.689 -36.519)"/>
      <path id="패스_15" data-name="패스 15" class="cls-2" d="M16.953,3.715V0H6V14.009H7.274v1.274H18.226V4.989ZM14.66,2.143l2.292,2.292.4.4h-2.7ZM6.509,13.5V.509h9.934v2.7L14.511,1.274H7.274V13.5Zm1.274,1.274V1.783h6.368V5.349h3.566v9.424Z"/>
    </g>
  </g>
</svg>
