<svg xmlns="http://www.w3.org/2000/svg" width="106" height="106" viewBox="0 0 106 106">
  <defs>
    <style>
      .cls-1 {
        fill: #204b84;
      }

      .cls-2 {
        fill: #fff;
      }
    </style>
  </defs>
  <g id="그룹_244" data-name="그룹 244" transform="translate(-1408 -3936)">
    <g id="그룹_221" data-name="그룹 221" transform="translate(986.992 -11.008)">
      <circle id="타원_38" data-name="타원 38" class="cls-1" cx="53" cy="53" r="53" transform="translate(421.008 3947.008)"/>
    </g>
    <g id="setting-window-svgrepo-com" transform="translate(1432.881 3933.161)">
      <path id="패스_129" data-name="패스 129" class="cls-2" d="M52.9,31.839H3.34A3.344,3.344,0,0,0,0,35.18V75.6a3.344,3.344,0,0,0,3.34,3.341H52.9a3.344,3.344,0,0,0,3.34-3.341V35.18A3.344,3.344,0,0,0,52.9,31.839ZM23.121,36.044a.765.765,0,0,1,.762-.763h4.572a.765.765,0,0,1,.762.763v1.434a.765.765,0,0,1-.762.763H23.884a.765.765,0,0,1-.762-.763V36.044Zm-9.388,0a.765.765,0,0,1,.762-.763h4.572a.765.765,0,0,1,.762.763v1.434a.765.765,0,0,1-.762.763H14.5a.765.765,0,0,1-.762-.763V36.044Zm-9.151,0a.765.765,0,0,1,.762-.763H9.917a.765.765,0,0,1,.762.763v1.434a.765.765,0,0,1-.762.763H5.345a.765.765,0,0,1-.762-.763ZM53.567,75.162a.806.806,0,0,1-.807.8H3.48a.806.806,0,0,1-.807-.8v-33.3a.806.806,0,0,1,.807-.8H52.76a.806.806,0,0,1,.807.8Z" transform="translate(0)"/>
      <path id="패스_130" data-name="패스 130" class="cls-2" d="M123.688,158.439a1.313,1.313,0,0,1-.043,1.075l-.357.628a.848.848,0,0,0,.13.962l2.09,2.09a.849.849,0,0,0,.962.13l.6-.34a1.3,1.3,0,0,1,1.08-.035l.657.274a1.322,1.322,0,0,1,.736.794l.211.766a.848.848,0,0,0,.772.588h2.956a.848.848,0,0,0,.772-.588l.211-.766a1.317,1.317,0,0,1,.737-.793l.6-.248a1.317,1.317,0,0,1,1.081.039l.641.364a.849.849,0,0,0,.962-.13l2.09-2.09a.849.849,0,0,0,.13-.962l-.365-.642a1.317,1.317,0,0,1-.039-1.081l.246-.592a1.319,1.319,0,0,1,.793-.737l.792-.218a.848.848,0,0,0,.588-.772V153.2a.849.849,0,0,0-.588-.772l-.792-.218a1.3,1.3,0,0,1-.786-.72,3.252,3.252,0,0,1-.171-1.606l.4-.7a.849.849,0,0,0-.13-.962l-2.09-2.09a.849.849,0,0,0-.962-.13l-.661.375a1.3,1.3,0,0,1-1.079.035l-.645-.271a1.326,1.326,0,0,1-.736-.8l-.226-.818a.849.849,0,0,0-.772-.588h-2.957a.849.849,0,0,0-.772.588l-.226.818a1.33,1.33,0,0,1-.736.8l-.7.3a1.292,1.292,0,0,1-1.078-.032l-.618-.351a.849.849,0,0,0-.962.13l-2.09,2.09a.848.848,0,0,0-.13.962l.391.689a1.293,1.293,0,0,1,.06,1.049c-.133.285-.673,1.146-1,1.236l-.792.218a.849.849,0,0,0-.588.772v2.956a.849.849,0,0,0,.588.772l.792.218C122.989,157.236,123.546,158.14,123.688,158.439ZM132,149.107a5.547,5.547,0,1,1-5.547,5.547A5.547,5.547,0,0,1,132,149.107Z" transform="translate(-103.885 -96.014)"/>
    </g>
  </g>
</svg>
