<svg xmlns="http://www.w3.org/2000/svg" width="106" height="106" viewBox="0 0 106 106">
  <defs>
    <style>
      .cls-1 {
        fill: #204b84;
      }

      .cls-2 {
        fill: #fff;
      }
    </style>
  </defs>
  <g id="그룹_243" data-name="그룹 243" transform="translate(-1068 -3936)">
    <g id="그룹_220" data-name="그룹 220" transform="translate(646.992 -11.008)">
      <circle id="타원_38" data-name="타원 38" class="cls-1" cx="53" cy="53" r="53" transform="translate(421.008 3947.008)"/>
    </g>
    <g id="mobile-phone-svgrepo-com" transform="translate(1025.623 3960.117)">
      <path id="패스_123" data-name="패스 123" class="cls-2" d="M107.584,0H82.189A6.446,6.446,0,0,0,75.75,6.439V51.623a6.446,6.446,0,0,0,6.439,6.439h25.395a6.446,6.446,0,0,0,6.439-6.439V6.439A6.446,6.446,0,0,0,107.584,0Zm3.957,51.623a3.961,3.961,0,0,1-3.957,3.957H82.189a3.961,3.961,0,0,1-3.957-3.957V6.439a3.961,3.961,0,0,1,3.957-3.957h25.395a3.961,3.961,0,0,1,3.957,3.957Z"/>
      <path id="패스_124" data-name="패스 124" class="cls-2" d="M134.944,66.719H106.991a1.241,1.241,0,0,0-1.241,1.241v36.285a1.241,1.241,0,0,0,1.241,1.241h27.953a1.241,1.241,0,0,0,1.241-1.241V67.96A1.241,1.241,0,0,0,134.944,66.719ZM133.7,103H108.232V69.2H133.7Z" transform="translate(-26.081 -58.004)"/>
      <path id="패스_125" data-name="패스 125" class="cls-2" d="M200.081,369.9a3.331,3.331,0,1,0,3.331,3.331A3.335,3.335,0,0,0,200.081,369.9Zm0,4.18a.849.849,0,1,1,.849-.849A.85.85,0,0,1,200.081,374.08Z" transform="translate(-105.195 -321.583)"/>
      <path id="패스_126" data-name="패스 126" class="cls-2" d="M196.686,37.482h4.521a1.241,1.241,0,1,0,0-2.482h-4.521a1.241,1.241,0,1,0,0,2.482Z" transform="translate(-104.06 -30.428)"/>
      <path id="패스_127" data-name="패스 127" class="cls-2" d="M152.179,134.109a10.528,10.528,0,1,0-10.528-10.528A10.54,10.54,0,0,0,152.179,134.109Zm-3.042-3.081v-.346a3.046,3.046,0,0,1,3.035-3.042h.015a3.046,3.046,0,0,1,3.035,3.042v.346a8.025,8.025,0,0,1-6.084,0Zm1.263-7.648a1.779,1.779,0,1,1,1.784,1.778h-.01A1.781,1.781,0,0,1,150.4,123.38Zm1.779-7.845a8.043,8.043,0,0,1,5.4,14,5.535,5.535,0,0,0-2.2-3.352,4.26,4.26,0,1,0-6.4,0,5.535,5.535,0,0,0-2.2,3.352,8.043,8.043,0,0,1,5.4-14Z" transform="translate(-57.293 -98.286)"/>
      <path id="패스_128" data-name="패스 128" class="cls-2" d="M196.774,287h-6.088a1.241,1.241,0,0,0,0,2.482h6.088a1.241,1.241,0,0,0,0-2.482Z" transform="translate(-98.844 -249.511)"/>
    </g>
  </g>
</svg>
