<svg xmlns="http://www.w3.org/2000/svg" width="106" height="106" viewBox="0 0 106 106">
  <defs>
    <style>
      .cls-1 {
        fill: #204b84;
      }

      .cls-2 {
        fill: #fff;
      }
    </style>
  </defs>
  <g id="그룹_218" data-name="그룹 218" transform="translate(-521.826 -3946.826)">
    <circle id="타원_39" data-name="타원 39" class="cls-1" cx="53" cy="53" r="53" transform="translate(521.826 3946.826)"/>
    <g id="clipboard-svgrepo-com" transform="translate(554.826 3969.826)">
      <g id="그룹_217" data-name="그룹 217" transform="translate(0)">
        <g id="그룹_216" data-name="그룹 216">
          <path id="패스_103" data-name="패스 103" class="cls-2" d="M107.554,4.071H97.223a5.025,5.025,0,0,0-9.868,0H77.025A5.03,5.03,0,0,0,72,9.1V53.872A5.03,5.03,0,0,0,77.025,58.9h30.53a5.03,5.03,0,0,0,5.025-5.025V9.1A5.03,5.03,0,0,0,107.554,4.071ZM85.1,7.06a1.082,1.082,0,0,1,1.081-1.081h2.035a.954.954,0,0,0,.954-.954,3.117,3.117,0,1,1,6.233,0,.954.954,0,0,0,.954.954H98.4A1.082,1.082,0,0,1,99.477,7.06V9.1A1.082,1.082,0,0,1,98.4,10.177H86.184A1.083,1.083,0,0,1,85.1,9.1s0,0,0,0,0,0,0-.006Zm1.081,5.025H98.4a2.994,2.994,0,0,0,2.832-2.035H106.6V52.918H77.979V10.049h5.372A2.994,2.994,0,0,0,86.184,12.085Zm24.487,41.788a3.12,3.12,0,0,1-3.117,3.117H77.025a3.12,3.12,0,0,1-3.117-3.117V9.1a3.12,3.12,0,0,1,3.117-3.117H83.4a2.974,2.974,0,0,0-.2,1.081V8.141h-6.17a.954.954,0,0,0-.954.954V53.872a.954.954,0,0,0,.954.954h30.53a.954.954,0,0,0,.954-.954V9.1a.954.954,0,0,0-.954-.954h-6.17V7.06a2.974,2.974,0,0,0-.2-1.081h6.373A3.12,3.12,0,0,1,110.671,9.1Z" transform="translate(-72)"/>
          <path id="패스_104" data-name="패스 104" class="cls-2" d="M224.954,34.926a.954.954,0,0,0,.954-.954V32.954a.954.954,0,1,0-1.908,0v1.018A.954.954,0,0,0,224.954,34.926Z" transform="translate(-204.664 -27.929)"/>
          <path id="패스_105" data-name="패스 105" class="cls-2" d="M144,136.954a.954.954,0,0,0,.954.954h13.23a.954.954,0,1,0,0-1.908h-13.23A.954.954,0,0,0,144,136.954Z" transform="translate(-134.841 -118.7)"/>
          <path id="패스_106" data-name="패스 106" class="cls-2" d="M144.954,169.908h10.177a.954.954,0,1,0,0-1.908H144.954a.954.954,0,1,0,0,1.908Z" transform="translate(-134.841 -146.629)"/>
          <path id="패스_107" data-name="패스 107" class="cls-2" d="M158.184,200h-13.23a.954.954,0,1,0,0,1.908h13.23a.954.954,0,1,0,0-1.908Z" transform="translate(-134.841 -174.558)"/>
          <path id="패스_108" data-name="패스 108" class="cls-2" d="M144.954,233.908h10.177a.954.954,0,1,0,0-1.908H144.954a.954.954,0,0,0,0,1.908Z" transform="translate(-134.841 -202.488)"/>
          <path id="패스_109" data-name="패스 109" class="cls-2" d="M158.184,264h-13.23a.954.954,0,1,0,0,1.908h13.23a.954.954,0,1,0,0-1.908Z" transform="translate(-134.841 -230.417)"/>
          <path id="패스_110" data-name="패스 110" class="cls-2" d="M144.954,297.908h10.177a.954.954,0,1,0,0-1.908H144.954a.954.954,0,1,0,0,1.908Z" transform="translate(-134.841 -258.347)"/>
          <path id="패스_111" data-name="패스 111" class="cls-2" d="M158.184,328h-13.23a.954.954,0,1,0,0,1.908h13.23a.954.954,0,1,0,0-1.908Z" transform="translate(-134.841 -286.276)"/>
          <path id="패스_112" data-name="패스 112" class="cls-2" d="M155.131,360H144.954a.954.954,0,1,0,0,1.908h10.177a.954.954,0,1,0,0-1.908Z" transform="translate(-134.841 -314.205)"/>
          <path id="패스_113" data-name="패스 113" class="cls-2" d="M273.631,134.6a.954.954,0,0,0,1.553,0l3.634-5.088a.954.954,0,0,0-1.553-1.109l-2.858,4-.677-.948a.954.954,0,0,0-1.553,1.109Z" transform="translate(-246.558 -111.717)"/>
          <path id="패스_114" data-name="패스 114" class="cls-2" d="M273.631,198.6a.954.954,0,0,0,1.553,0l3.634-5.088a.954.954,0,0,0-1.553-1.109l-2.858,4-.677-.948a.954.954,0,0,0-1.553,1.109Z" transform="translate(-246.558 -167.576)"/>
          <path id="패스_115" data-name="패스 115" class="cls-2" d="M273.631,262.6a.954.954,0,0,0,1.553,0l3.634-5.088a.954.954,0,0,0-1.553-1.109l-2.858,4-.677-.948a.954.954,0,0,0-1.553,1.109Z" transform="translate(-246.558 -223.434)"/>
          <path id="패스_116" data-name="패스 116" class="cls-2" d="M273.631,326.6a.954.954,0,0,0,1.553,0l3.634-5.088a.954.954,0,0,0-1.553-1.109l-2.858,4-.677-.948a.954.954,0,0,0-1.553,1.109Z" transform="translate(-246.558 -279.293)"/>
        </g>
      </g>
    </g>
  </g>
</svg>
