<svg xmlns="http://www.w3.org/2000/svg" width="106" height="106" viewBox="0 0 106 106">
  <defs>
    <style>
      .cls-1 {
        fill: #204b84;
      }

      .cls-2 {
        fill: #fff;
      }
    </style>
  </defs>
  <g id="그룹_219" data-name="그룹 219" transform="translate(-421.008 -3947.008)">
    <circle id="타원_38" data-name="타원 38" class="cls-1" cx="53" cy="53" r="53" transform="translate(421.008 3947.008)"/>
    <g id="phone-and-computer-monitor-outlines-inside-a-circle-svgrepo-com" transform="translate(439.932 3978.552)">
      <g id="그룹_213" data-name="그룹 213" transform="translate(0 0)">
        <path id="패스_89" data-name="패스 89" class="cls-2" d="M13.728,47.3A1.261,1.261,0,0,0,14.99,48.56H31.346A1.261,1.261,0,0,0,32.608,47.3v-3.7H45.073a1.26,1.26,0,0,0,1.262-1.262V11.012A1.261,1.261,0,0,0,45.073,9.75H1.262A1.261,1.261,0,0,0,0,11.012v31.32a1.26,1.26,0,0,0,1.262,1.262H13.728Zm16.356-1.262H16.252V43.595H30.083v2.441ZM43.811,12.274V34.645H2.524V12.274ZM2.524,37.169H43.811v3.9H2.524Z" transform="translate(0 -9.75)"/>
        <path id="패스_90" data-name="패스 90" class="cls-2" d="M8.205,42.223a1.262,1.262,0,1,0,0,2.524H34.493a1.262,1.262,0,0,0,0-2.524Z" transform="translate(1.82 -1.239)"/>
        <path id="패스_91" data-name="패스 91" class="cls-2" d="M56.45,18.12H40.971a1.261,1.261,0,0,0-1.262,1.262v30.15a1.261,1.261,0,0,0,1.262,1.262H56.45a1.261,1.261,0,0,0,1.262-1.262V19.382A1.262,1.262,0,0,0,56.45,18.12Zm-1.262,2.524v2.461H42.233V20.644Zm0,19.693H42.233V25.63H55.187ZM42.233,48.274V42.861H55.187v5.413Z" transform="translate(10.408 -7.556)"/>
        <path id="패스_92" data-name="패스 92" class="cls-2" d="M48.248,39.08h-1.9a1.262,1.262,0,1,0,0,2.524h1.9a1.262,1.262,0,0,0,0-2.524Z" transform="translate(11.818 -2.063)"/>
      </g>
    </g>
  </g>
</svg>
