<svg xmlns="http://www.w3.org/2000/svg" xmlns:xlink="http://www.w3.org/1999/xlink" width="592" height="110" viewBox="0 0 592 110">
  <defs>
    <filter id="패스_143" x="0" y="0" width="592" height="110" filterUnits="userSpaceOnUse">
      <feOffset dx="3" dy="3" input="SourceAlpha"/>
      <feGaussianBlur stdDeviation="1.5" result="blur"/>
      <feFlood flood-opacity="0.161"/>
      <feComposite operator="in" in2="blur"/>
      <feComposite in="SourceGraphic"/>
    </filter>
  </defs>
  <g id="그룹_363" data-name="그룹 363" transform="translate(1.148 1.021)">
    <g transform="matrix(1, 0, 0, 1, -1.15, -1.02)" filter="url(#패스_143)">
      <path id="패스_143-2" data-name="패스 143" d="M0,0H559a24,24,0,0,1,24,24V77a24,24,0,0,1-24,24H24A24,24,0,0,1,0,77Z" transform="translate(1.5 1.5)" fill="#fff"/>
    </g>
    <g id="그룹_33" data-name="그룹 33" transform="translate(74.279 12.852)">
      <g id="그룹_21" data-name="그룹 21" transform="translate(-58 -1)">
        <rect id="사각형_71" data-name="사각형 71" width="58" height="26" transform="translate(0.072 2.627)" fill="#3071f2"/>
        <text id="NEW" transform="translate(8.072 20.627)" fill="#fff" font-size="18" font-family="NotoSansKR-Regular, Noto Sans KR"><tspan x="0" y="0">NEW</tspan></text>
      </g>
      <text id="제로베이스로_시작해서_취업성공_" data-name="제로베이스로 시작해서 취업성공!" transform="translate(47.072 62.626)" fill="#272727" font-size="25" font-family="NotoSansKR-Regular, Noto Sans KR"><tspan x="0" y="0">제로베이스로 시작해서 취업성공!</tspan></text>
      <text id="특수용접_기술자_양성" data-name="특수용접 기술자 양성" transform="translate(8.072 21.627)" fill="#3071f2" font-size="18" font-family="NotoSansKR-Regular, Noto Sans KR"><tspan x="0" y="0">특수용접 기술자 양성</tspan></text>
      <text id="장_수" data-name="장*수" transform="translate(441.072 60.627)" fill="#272727" font-size="18" font-family="NotoSansKR-Regular, Noto Sans KR"><tspan x="0" y="0">장*수</tspan></text>
    </g>
  </g>
</svg>
