<svg xmlns="http://www.w3.org/2000/svg" xmlns:xlink="http://www.w3.org/1999/xlink" width="527" height="98" viewBox="0 0 527 98">
  <defs>
    <filter id="사각형_51" x="0" y="0" width="527" height="98" filterUnits="userSpaceOnUse">
      <feOffset dx="3" dy="3" input="SourceAlpha"/>
      <feGaussianBlur stdDeviation="1.5" result="blur"/>
      <feFlood flood-opacity="0.161"/>
      <feComposite operator="in" in2="blur"/>
      <feComposite in="SourceGraphic"/>
    </filter>
  </defs>
  <g id="그룹_39" data-name="그룹 39" transform="translate(1.149 1.456)">
    <g transform="matrix(1, 0, 0, 1, -1.15, -1.46)" filter="url(#사각형_51)">
      <path id="사각형_51-2" data-name="사각형 51" d="M0,0H494a24,24,0,0,1,24,24V65a24,24,0,0,1-24,24H24A24,24,0,0,1,0,65V0A0,0,0,0,1,0,0Z" transform="translate(1.5 1.5)" fill="#fff"/>
    </g>
    <g id="그룹_35" data-name="그룹 35" transform="translate(38.279 7.852)">
      <g id="그룹_21" data-name="그룹 21" transform="translate(0 0)">
        <rect id="사각형_71" data-name="사각형 71" width="58" height="24" transform="translate(0.072 4.192)" fill="#3071f2"/>
        <text id="NEW" transform="translate(8.072 21.192)" fill="#fff" font-size="18" font-family="NotoSansKR-Regular, Noto Sans KR"><tspan x="0" y="0">NEW</tspan></text>
      </g>
      <text id="불안해도_부딪혀봅시다_" data-name="불안해도 부딪혀봅시다!" transform="translate(66.072 60.192)" fill="#272727" font-size="21" font-family="NotoSansKR-Regular, Noto Sans KR"><tspan x="0" y="0">불안해도 부딪혀봅시다!</tspan></text>
      <text id="가구설계제작" transform="translate(66.072 23.192)" fill="#3071f2" font-size="18" font-family="NotoSansKR-Regular, Noto Sans KR"><tspan x="0" y="0">가구설계제작</tspan></text>
      <text id="장_수" data-name="장*수" transform="translate(394.072 61.192)" fill="#272727" font-size="18" font-family="NotoSansKR-Regular, Noto Sans KR"><tspan x="0" y="0">장*수</tspan></text>
    </g>
  </g>
</svg>
