<svg xmlns="http://www.w3.org/2000/svg" xmlns:xlink="http://www.w3.org/1999/xlink" width="527" height="98" viewBox="0 0 527 98">
  <defs>
    <filter id="사각형_66" x="0" y="0" width="527" height="98" filterUnits="userSpaceOnUse">
      <feOffset dx="3" dy="3" input="SourceAlpha"/>
      <feGaussianBlur stdDeviation="1.5" result="blur"/>
      <feFlood flood-opacity="0.161"/>
      <feComposite operator="in" in2="blur"/>
      <feComposite in="SourceGraphic"/>
    </filter>
  </defs>
  <g id="그룹_40" data-name="그룹 40" transform="translate(1.149 1.182)">
    <g transform="matrix(1, 0, 0, 1, -1.15, -1.18)" filter="url(#사각형_66)">
      <path id="사각형_66-2" data-name="사각형 66" d="M24,0H518a0,0,0,0,1,0,0V65a24,24,0,0,1-24,24H24A24,24,0,0,1,0,65V24A24,24,0,0,1,24,0Z" transform="translate(1.5 1.5)" fill="#fff"/>
    </g>
    <g id="그룹_36" data-name="그룹 36" transform="translate(38.279 8.834)">
      <g id="그룹_21" data-name="그룹 21" transform="translate(0 0)">
        <rect id="사각형_71" data-name="사각형 71" width="58" height="25" transform="translate(0.072 3.484)" fill="#3071f2"/>
        <text id="NEW" transform="translate(8.072 21.484)" fill="#fff" font-size="18" font-family="NotoSansKR-Regular, Noto Sans KR"><tspan x="0" y="0">NEW</tspan></text>
      </g>
      <text id="제로베이스로_시작해서_취업_성공." data-name="제로베이스로 시작해서 취업 성공." transform="translate(66.072 60.484)" fill="#272727" font-size="21" font-family="NotoSansKR-Regular, Noto Sans KR"><tspan x="0" y="0">제로베이스로 시작해서 취업 성공.</tspan></text>
      <text id="특수용접_기술자_양성" data-name="특수용접 기술자 양성" transform="translate(66.072 22.484)" fill="#3071f2" font-size="18" font-family="NotoSansKR-Regular, Noto Sans KR"><tspan x="0" y="0">특수용접 기술자 양성</tspan></text>
      <text id="장_수" data-name="장*수" transform="translate(394.072 61.484)" fill="#272727" font-size="18" font-family="NotoSansKR-Regular, Noto Sans KR"><tspan x="0" y="0">장*수</tspan></text>
    </g>
  </g>
</svg>
