<svg xmlns="http://www.w3.org/2000/svg" xmlns:xlink="http://www.w3.org/1999/xlink" width="527" height="98" viewBox="0 0 527 98">
  <defs>
    <filter id="사각형_50" x="0" y="0" width="527" height="98" filterUnits="userSpaceOnUse">
      <feOffset dx="3" dy="3" input="SourceAlpha"/>
      <feGaussianBlur stdDeviation="1.5" result="blur"/>
      <feFlood flood-opacity="0.161"/>
      <feComposite operator="in" in2="blur"/>
      <feComposite in="SourceGraphic"/>
    </filter>
  </defs>
  <g id="그룹_38" data-name="그룹 38" transform="translate(1.149 1.729)">
    <g transform="matrix(1, 0, 0, 1, -1.15, -1.73)" filter="url(#사각형_50)">
      <path id="사각형_50-2" data-name="사각형 50" d="M24,0H518a0,0,0,0,1,0,0V65a24,24,0,0,1-24,24H24A24,24,0,0,1,0,65V24A24,24,0,0,1,24,0Z" transform="translate(1.5 1.5)" fill="#fff"/>
    </g>
    <g id="그룹_34" data-name="그룹 34" transform="translate(38.279 7.852)">
      <g id="그룹_21" data-name="그룹 21" transform="translate(0 0)">
        <rect id="사각형_71" data-name="사각형 71" width="58" height="25" transform="translate(0.072 3.919)" fill="#3071f2"/>
        <text id="NEW" transform="translate(8.072 20.919)" fill="#fff" font-size="18" font-family="NotoSansKR-Regular, Noto Sans KR"><tspan x="0" y="0">NEW</tspan></text>
      </g>
      <text id="끝까지_듣는다면_누구나_가능해요." data-name="끝까지 듣는다면 누구나 가능해요." transform="translate(66.072 59.919)" fill="#272727" font-size="21" font-family="NotoSansKR-Regular, Noto Sans KR"><tspan x="0" y="0">끝까지 듣는다면 누구나 가능해요.</tspan></text>
      <text id="스마트패션디자인" transform="translate(66.072 22.919)" fill="#3071f2" font-size="18" font-family="NotoSansKR-Regular, Noto Sans KR"><tspan x="0" y="0">스마트패션디자인</tspan></text>
      <text id="장_수" data-name="장*수" transform="translate(394.072 60.919)" fill="#272727" font-size="18" font-family="NotoSansKR-Regular, Noto Sans KR"><tspan x="0" y="0">장*수</tspan></text>
    </g>
  </g>
</svg>
