<svg xmlns="http://www.w3.org/2000/svg" xmlns:xlink="http://www.w3.org/1999/xlink" width="527" height="100" viewBox="0 0 527 100">
  <defs>
    <filter id="사각형_49" x="0" y="0" width="527" height="100" filterUnits="userSpaceOnUse">
      <feOffset dx="3" dy="3" input="SourceAlpha"/>
      <feGaussianBlur stdDeviation="1.5" result="blur"/>
      <feFlood flood-opacity="0.161"/>
      <feComposite operator="in" in2="blur"/>
      <feComposite in="SourceGraphic"/>
    </filter>
  </defs>
  <g id="그룹_37" data-name="그룹 37" transform="translate(1.149 1.021)">
    <g transform="matrix(1, 0, 0, 1, -1.15, -1.02)" filter="url(#사각형_49)">
      <path id="사각형_49-2" data-name="사각형 49" d="M0,0H494a24,24,0,0,1,24,24V67a24,24,0,0,1-24,24H24A24,24,0,0,1,0,67V0A0,0,0,0,1,0,0Z" transform="translate(1.5 1.5)" fill="#fff"/>
    </g>
    <g id="그룹_33" data-name="그룹 33" transform="translate(38.279 7.852)">
      <g id="그룹_21" data-name="그룹 21" transform="translate(0 0)">
        <rect id="사각형_71" data-name="사각형 71" width="58" height="26" transform="translate(0.072 2.627)" fill="#3071f2"/>
        <text id="NEW" transform="translate(8.072 20.627)" fill="#fff" font-size="18" font-family="NotoSansKR-Regular, Noto Sans KR"><tspan x="0" y="0">NEW</tspan></text>
      </g>
      <text id="미루지_말고_포기하지_마세요_" data-name="미루지 말고, 포기하지 마세요~!" transform="translate(66.072 60.627)" fill="#272727" font-size="21" font-family="NotoSansKR-Regular, Noto Sans KR"><tspan x="0" y="0">미루지 말고, 포기하지 마세요~!</tspan></text>
      <text id="조경산업기사_" data-name="조경산업기사 " transform="translate(66.072 22.627)" fill="#3071f2" font-size="18" font-family="NotoSansKR-Regular, Noto Sans KR"><tspan x="0" y="0">조경산업기사 </tspan></text>
      <text id="장_수" data-name="장*수" transform="translate(394.072 60.627)" fill="#272727" font-size="18" font-family="NotoSansKR-Regular, Noto Sans KR"><tspan x="0" y="0">장*수</tspan></text>
    </g>
  </g>
</svg>
